<svg xmlns="http://www.w3.org/2000/svg" viewBox="0 0 24 24" fill="#94a3b8">
  <path d="M19.924 10.383a1 1 0 00-.217-1.09l-5-5-2.036 2.036 5.036 5.036a1 1 0 001.09.217l3.658-1.427a8.033 8.033 0 00-2.531-5.768v-.001C17.65 2.112 14.542 1 11.258 1S4.866 2.112 2.59 4.388a8.04 8.04 0 00-1.742 8.788 1 1 0 00.99.64h4.755a1 1 0 011 1v4.755a1 1 0 00.64.99 8.04 8.04 0 008.788-1.742c2.276-2.276 3.388-5.384 3.388-8.668 0-1.226-.178-2.417-.507-3.535l-1.427 3.658zm-11.51-1.954l-2.036-2.036 5-5a1 1 0 011.09-.217l3.658 1.427a8.03 8.03 0 00-5.768-2.53v.001C8.074.075 5.952.54 4.095 1.54L9.84 7.285c.39.39.39 1.024 0 1.414-.39.39-1.024.39-1.414 0zM5.5 18.5a2 2 0 11-4 0 2 2 0 014 0z"/>
</svg>
